#Comment line ignore any data following # character 
#Hierarchical Translation and Rotation (.htr) file 
[Header]	
#Header keywords are followed by a single value 
FileType HTR		#Single word string
DataType HTRS		#Translation followed by rotation and scale data
FileVersion 1		#integer
NumSegments 84		#integer
NumFrames 2		#integer
DataFrameRate 30		#integer, data frame rate in this file
EulerRotationOrder ZYX
CalibrationUnits mm
RotationUnits Degrees
GlobalAxisofGravity Y
BoneLengthAxis Y
ScaleFactor 1.00
[SegmentNames&Hierarchy]
#CHILD	PARENT
MASTER GLOBAL
root MASTER
chest root
L_mid_tent01 root
R_mid_tent01 root
spine01 root
Bip01_Neck chest
L_humerus chest
R_humerus chest
weapon_bone chest
Bip01_Head Bip01_Neck
eye_left_bone Bip01_Head
eye_right_bone Bip01_Head
L_forearm L_humerus
L_front_hand L_forearm
L_weapon_bone L_forearm
L_front_hand01_01 L_front_hand
L_front_hand02_01 L_front_hand
L_front_hand03_01 L_front_hand
L_front_hand01_02 L_front_hand01_01
L_front_hand02_02 L_front_hand02_01
L_front_hand03_02 L_front_hand03_01
R_forearm R_humerus
R_front_hand R_forearm
R_weapon_bone R_forearm
R_front_hand01_01 R_front_hand
R_front_hand02_01 R_front_hand
R_front_hand03_01 R_front_hand
R_front_hand01_02 R_front_hand01_01
R_front_hand02_02 R_front_hand02_01
R_front_hand03_02 R_front_hand03_01
null_rope01_connect L_mid_tent01
Rope1_Seg01 null_rope01_connect
Rope1_Seg02 Rope1_Seg01
Rope1_Seg03 Rope1_Seg02
Rope1_Seg04 Rope1_Seg03
Rope1_Seg05 Rope1_Seg04
Rope1_Seg06 Rope1_Seg05
Rope1_Seg07 Rope1_Seg06
Rope1_Seg09 Rope1_Seg07
L_mid_hand01 Rope1_Seg09
L_mid_hand02 Rope1_Seg09
L_mid_hand03 Rope1_Seg09
null_rope02_connect R_mid_tent01
Rope2_Seg01 null_rope02_connect
Rope2_Seg02 Rope2_Seg01
Rope2_Seg03 Rope2_Seg02
Rope2_Seg04 Rope2_Seg03
Rope2_Seg05 Rope2_Seg04
Rope2_Seg06 Rope2_Seg05
Rope2_Seg07 Rope2_Seg06
Rope2_Seg09 Rope2_Seg07
R_mid_hand01 Rope2_Seg09
R_mid_hand02 Rope2_Seg09
R_mid_hand03 Rope2_Seg09
spine02 spine01
spine03 spine02
pelvis spine03
null_rope03_connect pelvis
null_rope04_connect pelvis
Rope3_Seg01 null_rope03_connect
Rope3_Seg02 Rope3_Seg01
Rope3_Seg03 Rope3_Seg02
Rope3_Seg04 Rope3_Seg03
Rope3_Seg05 Rope3_Seg04
Rope3_Seg06 Rope3_Seg05
Rope3_Seg07 Rope3_Seg06
Rope3_Seg08 Rope3_Seg07
Rope3_Seg09 Rope3_Seg08
R_rear_hand01 Rope3_Seg09
R_rear_hand02 Rope3_Seg09
R_rear_hand03 Rope3_Seg09
Rope4_Seg01 null_rope04_connect
Rope4_Seg02 Rope4_Seg01
Rope4_Seg03 Rope4_Seg02
Rope4_Seg04 Rope4_Seg03
Rope4_Seg05 Rope4_Seg04
Rope4_Seg06 Rope4_Seg05
Rope4_Seg07 Rope4_Seg06
Rope4_Seg08 Rope4_Seg07
Rope4_Seg09 Rope4_Seg08
L_rear_hand01 Rope4_Seg09
L_rear_hand02 Rope4_Seg09
L_rear_hand03 Rope4_Seg09
[BasePosition]
#SegmentName Tx, Ty, Tz, Rx, Ry, Rz, BoneLength
MASTER 0.000000 0.000000 0.000000 -90.000000 0.000000 0.000000 10.000000 
root 0.000000 0.000000 0.000000 0.000000 0.000000 0.000000 10.000000 
chest 0.000000 0.000000 0.000000 0.000000 0.000000 0.000000 10.000000 
L_mid_tent01 0.000000 0.000000 0.000000 0.000000 0.000000 0.000000 10.000000 
R_mid_tent01 0.000000 0.000000 0.000000 0.000000 0.000000 0.000000 10.000000 
spine01 0.000000 0.000000 0.000000 0.000000 0.000000 0.000000 10.000000 
Bip01_Neck 0.000000 0.000000 0.000000 0.000000 0.000000 0.000000 10.000000 
L_humerus 0.000000 0.000000 0.000000 0.000000 0.000000 0.000000 10.000000 
R_humerus 0.000000 0.000000 0.000000 0.000000 0.000000 0.000000 10.000000 
weapon_bone 0.000000 0.000000 0.000000 0.000000 0.000000 0.000000 10.000000 
Bip01_Head 0.000000 0.000000 0.000000 0.000000 0.000000 0.000000 10.000000 
eye_left_bone 0.000000 0.000000 0.000000 0.000000 0.000000 0.000000 10.000000 
eye_right_bone 0.000000 0.000000 0.000000 0.000000 0.000000 0.000000 10.000000 
L_forearm 0.000000 0.000000 0.000000 0.000000 0.000000 0.000000 10.000000 
L_front_hand 0.000000 0.000000 0.000000 0.000000 0.000000 0.000000 10.000000 
L_weapon_bone 0.000000 0.000000 0.000000 0.000000 0.000000 0.000000 10.000000 
L_front_hand01_01 0.000000 0.000000 0.000000 0.000000 0.000000 0.000000 10.000000 
L_front_hand02_01 0.000000 0.000000 0.000000 0.000000 0.000000 0.000000 10.000000 
L_front_hand03_01 0.000000 0.000000 0.000000 0.000000 0.000000 0.000000 10.000000 
L_front_hand01_02 0.000000 0.000000 0.000000 0.000000 0.000000 0.000000 10.000000 
L_front_hand02_02 0.000000 0.000000 0.000000 0.000000 0.000000 0.000000 10.000000 
L_front_hand03_02 0.000000 0.000000 0.000000 0.000000 0.000000 0.000000 10.000000 
R_forearm 0.000000 0.000000 0.000000 0.000000 0.000000 0.000000 10.000000 
R_front_hand 0.000000 0.000000 0.000000 0.000000 0.000000 0.000000 10.000000 
R_weapon_bone 0.000000 0.000000 0.000000 0.000000 0.000000 0.000000 10.000000 
R_front_hand01_01 0.000000 0.000000 0.000000 0.000000 0.000000 0.000000 10.000000 
R_front_hand02_01 0.000000 0.000000 0.000000 0.000000 0.000000 0.000000 10.000000 
R_front_hand03_01 0.000000 0.000000 0.000000 0.000000 0.000000 0.000000 10.000000 
R_front_hand01_02 0.000000 0.000000 0.000000 0.000000 0.000000 0.000000 10.000000 
R_front_hand02_02 0.000000 0.000000 0.000000 0.000000 0.000000 0.000000 10.000000 
R_front_hand03_02 0.000000 0.000000 0.000000 0.000000 0.000000 0.000000 10.000000 
null_rope01_connect 0.000000 0.000000 0.000000 0.000000 0.000000 0.000000 10.000000 
Rope1_Seg01 0.000000 0.000000 0.000000 0.000000 0.000000 0.000000 10.000000 
Rope1_Seg02 0.000000 0.000000 0.000000 0.000000 0.000000 0.000000 10.000000 
Rope1_Seg03 0.000000 0.000000 0.000000 0.000000 0.000000 0.000000 10.000000 
Rope1_Seg04 0.000000 0.000000 0.000000 0.000000 0.000000 0.000000 10.000000 
Rope1_Seg05 0.000000 0.000000 0.000000 0.000000 0.000000 0.000000 10.000000 
Rope1_Seg06 0.000000 0.000000 0.000000 0.000000 0.000000 0.000000 10.000000 
Rope1_Seg07 0.000000 0.000000 0.000000 0.000000 0.000000 0.000000 10.000000 
Rope1_Seg09 0.000000 0.000000 0.000000 0.000000 0.000000 0.000000 10.000000 
L_mid_hand01 0.000000 0.000000 0.000000 0.000000 0.000000 0.000000 10.000000 
L_mid_hand02 0.000000 0.000000 0.000000 0.000000 0.000000 0.000000 10.000000 
L_mid_hand03 0.000000 0.000000 0.000000 0.000000 0.000000 0.000000 10.000000 
null_rope02_connect 0.000000 0.000000 0.000000 0.000000 0.000000 0.000000 10.000000 
Rope2_Seg01 0.000000 0.000000 0.000000 0.000000 0.000000 0.000000 10.000000 
Rope2_Seg02 0.000000 0.000000 0.000000 0.000000 0.000000 0.000000 10.000000 
Rope2_Seg03 0.000000 0.000000 0.000000 0.000000 0.000000 0.000000 10.000000 
Rope2_Seg04 0.000000 0.000000 0.000000 0.000000 0.000000 0.000000 10.000000 
Rope2_Seg05 0.000000 0.000000 0.000000 0.000000 0.000000 0.000000 10.000000 
Rope2_Seg06 0.000000 0.000000 0.000000 0.000000 0.000000 0.000000 10.000000 
Rope2_Seg07 0.000000 0.000000 0.000000 0.000000 0.000000 0.000000 10.000000 
Rope2_Seg09 0.000000 0.000000 0.000000 0.000000 0.000000 0.000000 10.000000 
R_mid_hand01 0.000000 0.000000 0.000000 0.000000 0.000000 0.000000 10.000000 
R_mid_hand02 0.000000 0.000000 0.000000 0.000000 0.000000 0.000000 10.000000 
R_mid_hand03 0.000000 0.000000 0.000000 0.000000 0.000000 0.000000 10.000000 
spine02 0.000000 0.000000 0.000000 0.000000 0.000000 0.000000 10.000000 
spine03 0.000000 0.000000 0.000000 0.000000 0.000000 0.000000 10.000000 
pelvis 0.000000 0.000000 0.000000 0.000000 0.000000 0.000000 10.000000 
null_rope03_connect 0.000000 0.000000 0.000000 0.000000 0.000000 0.000000 10.000000 
null_rope04_connect 0.000000 0.000000 0.000000 0.000000 0.000000 0.000000 10.000000 
Rope3_Seg01 0.000000 0.000000 0.000000 0.000000 0.000000 0.000000 10.000000 
Rope3_Seg02 0.000000 0.000000 0.000000 0.000000 0.000000 0.000000 10.000000 
Rope3_Seg03 0.000000 0.000000 0.000000 0.000000 0.000000 0.000000 10.000000 
Rope3_Seg04 0.000000 0.000000 0.000000 0.000000 0.000000 0.000000 10.000000 
Rope3_Seg05 0.000000 0.000000 0.000000 0.000000 0.000000 0.000000 10.000000 
Rope3_Seg06 0.000000 0.000000 0.000000 0.000000 0.000000 0.000000 10.000000 
Rope3_Seg07 0.000000 0.000000 0.000000 0.000000 0.000000 0.000000 10.000000 
Rope3_Seg08 0.000000 0.000000 0.000000 0.000000 0.000000 0.000000 10.000000 
Rope3_Seg09 0.000000 0.000000 0.000000 0.000000 0.000000 0.000000 10.000000 
R_rear_hand01 0.000000 0.000000 0.000000 0.000000 0.000000 0.000000 10.000000 
R_rear_hand02 0.000000 0.000000 0.000000 0.000000 0.000000 0.000000 10.000000 
R_rear_hand03 0.000000 0.000000 0.000000 0.000000 0.000000 0.000000 10.000000 
Rope4_Seg01 0.000000 0.000000 0.000000 0.000000 0.000000 0.000000 10.000000 
Rope4_Seg02 0.000000 0.000000 0.000000 0.000000 0.000000 0.000000 10.000000 
Rope4_Seg03 0.000000 0.000000 0.000000 0.000000 0.000000 0.000000 10.000000 
Rope4_Seg04 0.000000 0.000000 0.000000 0.000000 0.000000 0.000000 10.000000 
Rope4_Seg05 0.000000 0.000000 0.000000 0.000000 0.000000 0.000000 10.000000 
Rope4_Seg06 0.000000 0.000000 0.000000 0.000000 0.000000 0.000000 10.000000 
Rope4_Seg07 0.000000 0.000000 0.000000 0.000000 0.000000 0.000000 10.000000 
Rope4_Seg08 0.000000 0.000000 0.000000 0.000000 0.000000 0.000000 10.000000 
Rope4_Seg09 0.000000 0.000000 0.000000 0.000000 0.000000 0.000000 10.000000 
L_rear_hand01 0.000000 0.000000 0.000000 0.000000 0.000000 0.000000 10.000000 
L_rear_hand02 0.000000 0.000000 0.000000 0.000000 0.000000 0.000000 10.000000 
L_rear_hand03 0.000000 0.000000 0.000000 0.000000 0.000000 0.000000 10.000000 
#Beginning of Data. Separated by tabs
#Fr	Tx	Ty	Tz	Rx	Ry	Rz	SF
[MASTER]
4 0.000000 0.000000 0.000000 0.001660 0.001660 0.001660 0.000000
5 0.000000 0.000000 0.000000 0.001660 0.001660 0.001660 0.000000
[root]
4 -16.502291 -62.822117 1502.657593 -91.629700 -27.676081 -90.148109 1504.060791
5 -16.502291 -62.822117 1502.657593 -91.629700 -27.676081 -90.148109 1504.060791
[chest]
4 -84.512650 -34.090519 0.000000 -2.380385 0.623957 177.724533 91.129311
5 -84.512650 -34.090519 0.000000 -2.460886 0.535273 177.122314 91.129311
[L_mid_tent01]
4 27.299500 22.177483 -249.917984 -23.607626 22.090834 34.478867 252.380859
5 27.299500 22.177483 -249.917984 -21.900009 24.624022 38.206142 252.380859
[R_mid_tent01]
4 23.228794 24.509907 226.238495 179.874649 -23.367575 46.348064 228.744751
5 23.228794 24.509907 226.238495 178.957764 -26.425432 49.544201 228.744751
[spine01]
4 -0.361383 -0.195265 0.000000 0.001874 0.001414 15.925029 0.410763
5 -0.361383 -0.195265 0.000000 0.001875 0.001412 16.055338 0.410763
[Bip01_Neck]
4 165.484543 71.581718 0.000119 175.896118 1.177290 24.871183 180.302734
5 165.484543 71.581718 0.000119 175.896118 1.177290 24.871183 180.302734
[L_humerus]
4 -13.983130 -135.272980 -120.471481 161.214233 59.134357 -110.600868 181.680161
5 -13.983130 -135.272980 -120.471481 164.651810 51.542053 -110.580330 181.680161
[R_humerus]
4 -13.983309 -135.273102 125.287651 -170.131851 -47.045994 -103.653397 184.909012
5 -13.983309 -135.273102 125.287651 -170.665924 -40.428196 -106.313339 184.909012
[weapon_bone]
4 235.964890 -300.705902 0.000000 0.000000 -89.951546 -128.212341 382.234833
5 235.964890 -300.705902 0.000000 0.000000 -89.951546 -128.212341 382.234833
[Bip01_Head]
4 188.488953 222.194748 17.583101 2.340954 3.515650 -34.674171 291.903656
5 175.912674 236.155975 19.805058 1.341943 3.792762 -30.506767 295.139221
[eye_left_bone]
4 -24.626970 125.451866 -64.772606 0.000000 -90.000000 -99.840431 143.318359
5 -24.626970 125.451866 -64.772606 0.000000 -90.000000 -99.840431 143.318359
[eye_right_bone]
4 -24.626970 125.451866 64.327362 0.000000 -89.960434 80.159386 143.117676
5 -24.626970 125.451866 64.327362 0.000000 -89.960434 80.159386 143.117676
[L_forearm]
4 322.776093 0.000000 -0.000119 0.000338 0.002323 -73.459763 322.776093
5 322.776093 0.000000 -0.000119 0.000336 0.002323 -73.540009 322.776093
[L_front_hand]
4 241.149185 -0.042021 -3.300071 -178.966431 -2.018339 -18.493092 241.171753
5 241.149185 -0.042021 -3.300071 -179.105179 -2.085860 -14.646956 241.171753
[L_weapon_bone]
4 156.183838 0.000000 0.000000 0.001670 0.001650 0.703951 156.183838
5 156.183838 0.000000 0.000000 0.001678 0.001642 1.233165 156.183838
[L_front_hand01_01]
4 86.095154 20.947098 -0.655860 -0.366594 -0.477154 75.385574 88.609184
5 86.095154 20.947098 -0.655860 -0.366594 -0.477154 75.385574 88.609184
[L_front_hand02_01]
4 86.935165 -11.437475 24.513514 154.403519 -59.888931 -61.371990 91.046425
5 86.935165 -11.437475 24.513514 154.403519 -59.888931 -61.371990 91.046425
[L_front_hand03_01]
4 86.637497 -14.123976 -20.424902 -153.913849 58.118122 -62.702866 90.126129
5 86.637497 -14.123976 -20.424902 -153.913849 58.118122 -62.702866 90.126129
[L_front_hand01_02]
4 71.020905 -0.000179 0.000030 0.001534 0.001777 -8.378850 71.020905
5 71.020905 -0.000179 0.000030 0.001534 0.001777 -8.378850 71.020905
[L_front_hand02_02]
4 71.020927 -0.000119 0.000060 0.001534 0.001777 -8.378850 71.020927
5 71.020927 -0.000119 0.000060 0.001534 0.001777 -8.378850 71.020927
[L_front_hand03_02]
4 71.020905 -0.000060 0.000060 0.001534 0.001777 -8.378850 71.020905
5 71.020905 -0.000060 0.000060 0.001534 0.001777 -8.378850 71.020905
[R_forearm]
4 322.776428 -0.000060 0.000030 0.177057 -0.121843 -56.614372 322.776428
5 322.776428 -0.000060 0.000030 0.180331 -0.119009 -57.670479 322.776428
[R_front_hand]
4 238.847015 -0.006795 2.210259 -1.332752 1.096662 -39.283512 238.857239
5 238.847015 -0.006795 2.210259 -1.252195 1.186874 -35.236542 238.857239
[R_weapon_bone]
4 155.664093 0.002503 -0.000030 0.003483 0.001191 -91.376625 155.664078
5 155.664093 0.002503 -0.000030 0.003480 0.001200 -91.666550 155.664078
[R_front_hand01_01]
4 87.624611 14.231146 22.918642 -154.633499 -59.950619 61.746044 91.683487
5 87.624611 14.231146 22.918642 -154.633499 -59.950634 61.746063 91.683487
[R_front_hand02_01]
4 89.356956 14.367283 -19.491137 154.602661 58.302849 63.744389 92.579636
5 89.356956 14.367283 -19.491137 154.602661 58.302849 63.744389 92.579636
[R_front_hand03_01]
4 87.286232 -22.307278 -0.143439 0.162155 -0.423168 -75.767921 90.091743
5 87.286232 -22.307278 -0.143439 0.162155 -0.423168 -75.767921 90.091743
[R_front_hand01_02]
4 71.020905 0.000060 0.000119 0.001777 0.001534 8.377220 71.020905
5 71.020905 0.000060 0.000119 0.001777 0.001534 8.377221 71.020905
[R_front_hand02_02]
4 71.020844 -0.000030 -0.000119 0.001777 0.001534 8.377220 71.020836
5 71.020844 -0.000030 -0.000119 0.001777 0.001534 8.377221 71.020836
[R_front_hand03_02]
4 71.020905 0.000000 0.000030 0.001777 0.001534 8.377220 71.020905
5 71.020905 0.000000 0.000030 0.001777 0.001534 8.377221 71.020905
[null_rope01_connect]
4 328.732483 0.000000 -0.000238 -146.177628 -56.407978 -135.281296 328.732483
5 328.732483 0.000000 -0.000238 -144.655136 -55.811184 -140.680756 328.732483
[Rope1_Seg01]
4 0.000000 0.000000 0.000000 -8.628263 17.907284 -108.410782 0.000000
5 0.000000 0.000000 0.000000 -47.636234 25.494053 -111.668571 0.000000
[Rope1_Seg02]
4 139.999863 -0.000179 0.000000 -29.540907 5.835738 3.276877 139.999863
5 139.999863 -0.000179 0.000000 -46.017902 6.376773 8.732286 139.999863
[Rope1_Seg03]
4 139.999924 0.000060 -0.000060 -24.435301 2.821702 9.857686 139.999924
5 139.999924 0.000060 -0.000060 -7.532000 -9.992615 17.110893 139.999924
[Rope1_Seg04]
4 139.999924 -0.000060 -0.000119 -16.139601 -0.955058 16.275330 139.999924
5 139.999924 -0.000060 -0.000119 -16.342047 -0.494789 32.064377 139.999924
[Rope1_Seg05]
4 139.999832 0.000119 -0.000060 -35.242737 27.756685 27.677240 139.999832
5 139.999832 0.000119 -0.000060 -8.019599 14.798885 27.658289 139.999832
[Rope1_Seg06]
4 139.999954 0.000119 -0.000060 -7.831237 1.739842 17.136494 139.999954
5 139.999954 0.000119 -0.000060 -1.221481 1.105333 7.285476 139.999954
[Rope1_Seg07]
4 139.999985 0.000060 0.000000 -2.015077 -0.686586 7.359434 139.999985
5 139.999985 0.000060 0.000000 -0.430867 0.401375 3.655669 139.999985
[Rope1_Seg09]
4 121.602913 0.000119 -0.000089 -89.793175 -1.359789 0.847147 121.602913
5 121.602913 0.000119 -0.000089 -89.793175 -1.359789 0.847147 121.602913
[L_mid_hand01]
4 103.859421 1.038730 8.195221 107.619354 -34.996040 -10.852827 104.187431
5 103.859421 1.038730 8.195221 107.557938 -34.720467 -10.745080 104.187431
[L_mid_hand02]
4 105.572853 -4.139662 -10.864139 -143.929321 28.116068 -32.301952 106.211075
5 105.572853 -4.139662 -10.864139 -143.805771 27.944752 -32.041142 106.211075
[L_mid_hand03]
4 104.641464 17.579376 -3.913581 -15.436400 10.806220 38.071503 106.179977
5 104.641464 17.579376 -3.913581 -15.486126 10.729178 37.789612 106.179977
[null_rope02_connect]
4 328.732849 0.000179 -0.000119 -105.697357 67.916054 3.169055 328.732849
5 328.732849 0.000179 -0.000119 -107.281769 64.871651 4.584831 328.732849
[Rope2_Seg01]
4 0.000095 0.000153 0.000005 83.506371 6.238577 -66.345558 0.000180
5 0.000095 0.000153 0.000006 104.668350 16.609346 -63.128750 0.000180
[Rope2_Seg02]
4 139.999741 -0.000060 -0.000119 26.056618 6.316594 -12.094543 139.999756
5 139.999741 -0.000060 -0.000119 68.836479 6.325159 -20.504238 139.999756
[Rope2_Seg03]
4 140.000107 0.000030 0.000000 56.567951 1.261079 -17.042574 140.000107
5 140.000107 0.000030 0.000000 40.715897 -16.970325 -16.247469 140.000107
[Rope2_Seg04]
4 139.999802 0.000000 -0.000060 28.542549 -12.329590 -9.506307 139.999802
5 139.999802 0.000000 -0.000060 5.940548 -15.661991 0.578660 139.999802
[Rope2_Seg05]
4 139.999985 -0.000060 0.000119 0.046633 -12.081817 4.981555 139.999985
5 139.999985 -0.000060 0.000119 -3.364878 -9.969751 8.835754 139.999985
[Rope2_Seg06]
4 139.999893 -0.000030 -0.000119 -1.318969 -13.253641 6.766080 139.999893
5 139.999893 -0.000030 -0.000119 -1.797423 -8.582874 7.080112 139.999893
[Rope2_Seg07]
4 139.999893 0.000060 -0.000060 -0.157006 -11.389690 4.431975 139.999893
5 139.999893 0.000060 -0.000060 -0.526668 -6.174066 3.913897 139.999893
[Rope2_Seg09]
4 121.338966 0.000089 -0.000060 33.793236 -1.359788 -0.847141 121.338966
5 121.338966 0.000089 -0.000060 33.793236 -1.359788 -0.847141 121.338966
[R_mid_hand01]
4 104.680779 11.144459 -10.335981 -40.364899 27.441000 31.192705 105.778534
5 104.680779 11.144459 -10.335981 -40.474060 27.263517 30.954493 105.778534
[R_mid_hand02]
4 104.070427 2.443552 8.231699 72.221840 -35.681595 11.126797 104.424065
5 104.070427 2.443552 8.231699 72.275795 -35.418598 11.030024 104.424065
[R_mid_hand03]
4 106.028137 -11.221827 -5.996406 -168.461975 10.890041 -40.075188 106.788818
5 106.028137 -11.221827 -5.996406 -168.410202 10.834799 -39.798611 106.788818
[spine02]
4 129.756927 0.001550 0.000119 -0.381196 -4.049044 -2.471868 129.756927
5 129.756927 0.001550 0.000119 -0.422464 -4.047235 -1.864038 129.756927
[spine03]
4 78.643852 0.082043 -4.604868 0.262969 4.316127 -6.212645 78.778595
5 78.653885 0.080298 -4.506892 0.216215 4.330719 -6.774570 78.782951
[pelvis]
4 169.435242 0.051022 0.000000 -0.421656 -0.406016 -0.958641 169.435257
5 169.435242 0.051022 0.000000 -0.559767 -0.476106 -0.645058 169.435257
[null_rope03_connect]
4 -1.257226 -2.466202 137.391083 -153.326553 -88.218643 -95.285698 137.418976
5 -1.257226 -2.466202 137.391083 -155.548981 -88.035965 -93.540459 137.418976
[null_rope04_connect]
4 -1.259640 -2.480268 -137.844437 -153.326553 -88.218643 -95.285698 137.872513
5 -1.259640 -2.480268 -137.844437 -155.548981 -88.035965 -93.540459 137.872513
[Rope3_Seg01]
4 0.000000 0.000000 0.000000 -138.403687 -27.053345 -63.005615 0.000000
5 0.000000 0.000000 0.000000 -141.663025 -32.992825 -60.943600 0.000000
[Rope3_Seg02]
4 139.999924 -0.000119 0.000060 -2.825685 8.852797 -1.785147 139.999924
5 139.999924 -0.000119 0.000060 -4.132924 10.161227 -3.252877 139.999924
[Rope3_Seg03]
4 139.999924 -0.000119 0.000119 -0.923933 4.819241 0.472652 139.999924
5 139.999924 -0.000119 0.000119 -1.131292 4.974776 0.586200 139.999924
[Rope3_Seg04]
4 139.999924 0.000119 0.000000 -0.404151 2.804115 0.803115 139.999924
5 139.999924 0.000119 0.000000 -0.177279 2.116677 1.828692 139.999924
[Rope3_Seg05]
4 139.999924 -0.000238 0.000060 -1.551816 6.170626 -4.085078 139.999924
5 139.999924 -0.000238 0.000060 -2.500889 7.134207 -5.911154 139.999924
[Rope3_Seg06]
4 139.999893 -0.000119 -0.000060 -2.944686 10.018627 -8.104381 139.999893
5 139.999893 -0.000119 -0.000060 -5.636137 12.394193 -12.065594 139.999893
[Rope3_Seg07]
4 139.999771 0.000060 -0.000119 -1.935295 7.982463 -5.490419 139.999771
5 139.999771 0.000060 -0.000119 -3.984157 9.794663 -7.884869 139.999771
[Rope3_Seg08]
4 139.999985 -0.000060 0.000000 -0.950555 5.398620 -3.385788 139.999985
5 139.999985 -0.000060 0.000000 -1.665220 5.468182 -3.678443 139.999985
[Rope3_Seg09]
4 90.185997 -0.000179 -0.000060 89.793228 -1.359877 -0.847183 90.185997
5 90.185997 -0.000179 -0.000060 89.793228 -1.359877 -0.847183 90.185997
[R_rear_hand01]
4 103.366196 -6.073594 -10.757982 -162.468140 17.633312 -33.201195 104.101845
5 103.366196 -6.073594 -10.757982 -162.392670 17.555180 -32.951420 104.101845
[R_rear_hand02]
4 100.509819 12.039542 -7.992327 -33.328899 21.029882 31.640598 101.543350
5 100.509819 12.039542 -7.992327 -33.405491 20.892263 31.417969 101.543350
[R_rear_hand03]
4 101.539970 5.215704 5.435467 83.134972 -34.037994 7.720417 101.819031
5 101.539970 5.215704 5.435467 83.155914 -33.786896 7.682789 101.819031
[Rope4_Seg01]
4 0.000000 0.000000 0.000000 48.517670 -15.017932 -108.216927 0.000000
5 0.000000 0.000000 0.000000 48.799484 -18.454712 -107.085403 0.000000
[Rope4_Seg02]
4 139.999985 0.000060 0.000119 1.819462 -7.845437 11.603008 139.999985
5 139.999985 0.000060 0.000119 2.227894 -11.933656 12.882809 139.999985
[Rope4_Seg03]
4 139.999924 0.000000 -0.000238 1.710048 -5.204995 8.716235 139.999924
5 139.999924 0.000000 -0.000238 2.564245 -7.571249 8.894232 139.999924
[Rope4_Seg04]
4 139.999985 0.000000 0.000119 1.278924 -3.105190 5.877301 139.999985
5 139.999985 0.000000 0.000119 1.757900 -3.939404 4.812667 139.999985
[Rope4_Seg05]
4 139.999802 -0.000060 -0.000119 1.518237 -4.167548 6.820297 139.999802
5 139.999802 -0.000060 -0.000119 2.899277 -5.278532 8.428973 139.999802
[Rope4_Seg06]
4 139.999924 0.000000 0.000060 1.895096 -5.111203 8.277303 139.999924
5 139.999924 0.000000 0.000060 3.785204 -6.020242 11.721523 139.999924
[Rope4_Seg07]
4 139.999802 0.000000 0.000000 1.626143 -3.538452 6.447397 139.999802
5 139.999802 0.000000 0.000000 2.836038 -3.744535 8.782972 139.999802
[Rope4_Seg08]
4 139.999924 0.000000 0.000119 -0.421176 -2.165262 4.299327 139.999924
5 139.999924 0.000000 0.000119 0.014003 -1.810750 4.855209 139.999924
[Rope4_Seg09]
4 90.185791 0.000060 0.000060 -135.617828 2.228885 0.850567 90.185791
5 90.185791 0.000060 0.000060 -135.617828 2.228885 0.850567 90.185791
[L_rear_hand01]
4 101.696655 -8.392275 -7.654577 -33.474422 -20.773029 148.774872 102.329041
5 101.696655 -8.392275 -7.654577 -33.561619 -20.619589 149.021332 102.329041
[L_rear_hand02]
4 102.726799 -1.568258 5.773216 83.168877 33.575619 172.345398 102.900848
5 102.726799 -1.568258 5.773216 83.193771 33.303131 172.385620 102.900848
[L_rear_hand03]
4 104.552910 9.721220 -10.420293 -162.329819 -17.489780 -147.266205 105.519653
5 104.552910 9.721220 -10.420293 -162.245972 -17.408657 -147.542526 105.519653
